<?xml version="1.0" encoding="UTF-8"?>
<svg id="Layer_1" xmlns="http://www.w3.org/2000/svg" version="1.1" viewBox="0 0 280.8 209.76">
  <!-- Generator: Adobe Illustrator 29.3.1, SVG Export Plug-In . SVG Version: 2.1.0 Build 151)  -->
  <defs>
    <style>
      .st0 {
        fill: #fff;
      }
    </style>
  </defs>
  <path class="st0" d="M159.22,11.77c-24.15-.87-48.31,7.76-66.19,23.85-1.08.97-3.21,3.64-4.18,4.21-.23.14-.41.3-.71.23L9.98,1.44c-.61-.16-.39-1.17-.03-1.17h148.91l.36.36v11.15ZM158.26,1.23H12.47l75.44,37.64c.8.05,3.15-2.78,3.93-3.48,18.12-16.32,41.82-25.37,66.43-24.57V1.23Z"/>
  <path class="st0" d="M9.59,12.01l34.3,16.9L10.32,45.95l-.73-.26V12.01ZM10.55,13.21v31.4l31.65-15.82L10.55,13.21Z"/>
  <path class="st0" d="M158.26,1.23v9.59c-24.6-.8-48.31,8.25-66.43,24.57-.78.7-3.14,3.53-3.93,3.48L12.47,1.23h145.8Z"/>
  <polygon class="st0" points="10.55 13.21 42.2 28.79 10.55 44.61 10.55 13.21"/>
  <g>
    <path class="st0" d="M159.22,209.52H9.59V56.6l45.46-22.29,26.5,13.05.11.6c-11.01,14.28-17.96,31.9-19.31,49.99-3.89,51.88,36.23,98.02,88.35,100.32,2.29.1,5.89-.38,7.92,0,.27.05.45.12.6.36v10.91ZM10.55,57.44v151.37h147.71v-9.59c-33.26,1.26-64.99-16.02-82.59-43.88-19.1-30.24-19.37-68.91-.72-99.43,1.7-2.79,3.7-5.37,5.37-8.17l-25.3-12.38L10.55,57.44Z"/>
    <path class="st0" d="M10.55,57.44l44.48-22.08,25.3,12.38c-1.68,2.8-3.67,5.38-5.37,8.17-18.65,30.52-18.38,69.19.72,99.43,17.6,27.87,49.33,45.15,82.59,43.88v9.59H10.55V57.44Z"/>
  </g>
  <path class="st0" d="M167.62.03c27.5,1.85,47.97,24.51,49.16,51.66.73,16.6-.55,33.69.01,50.34l-.4,1.33-52.96-26.14L163.54.03c1.34.07,2.74-.09,4.08,0ZM164.5.99v75.98l51.07,25.17v-53.34c-1.84-26.38-24.59-47.71-51.07-47.81Z"/>
  <path class="st0" d="M163.3,209.52v-120.92c0-.12.4-.39.6-.37,11.85,5.64,23.69,11.45,35.45,17.3,5.79,2.88,11.67,5.72,17.3,8.83l.13.83c-.77,15.2,1.09,31.44-.26,46.51-2.42,27.01-25.81,48.92-53.23,47.82ZM164.5,89.43v119.37c26.35-.06,48.93-21.18,51.07-47.34l.02-46.51-51.09-25.52Z"/>
  <path class="st0" d="M221.24,104.33c24.16-.12,45.85,16.91,51.39,40.37,1.89,8.02,1.79,17.83-.29,25.8-3.53,13.5-12.6,25.44-24.79,32.25-15.39-8.13-25.35-24.74-26.71-42l.11-56.23.29-.19ZM221.81,105.26v54.78c1,15.67,9.1,30.45,21.98,39.38.66.46,3.17,2.24,3.73,2.17.68-.09,4.98-3.16,5.81-3.81,33.22-25.79,22.51-79.16-17.86-90.48-4.52-1.27-9.02-1.74-13.67-2.04Z"/>
  <path class="st0" d="M164.5.99c26.48.09,49.24,21.43,51.09,47.81v53.34s-51.09-25.17-51.09-25.17V.99Z"/>
  <path class="st0" d="M164.5,89.43l51.09,25.52-.02,46.51c-2.14,26.17-24.73,47.28-51.07,47.34v-119.37Z"/>
  <path class="st0" d="M221.81,105.26c4.65.3,9.15.77,13.67,2.04,40.37,11.31,51.09,64.69,17.86,90.48-.83.64-5.13,3.72-5.81,3.81-.57.08-3.08-1.71-3.73-2.17-12.88-8.93-20.99-23.71-22-39.38v-54.78Z"/>
</svg>