<?xml version="1.0" encoding="UTF-8"?>
<svg id="Layer_1" xmlns="http://www.w3.org/2000/svg" version="1.1" viewBox="0 0 221.25 295.5">
  <!-- Generator: Adobe Illustrator 29.3.1, SVG Export Plug-In . SVG Version: 2.1.0 Build 151)  -->
  <defs>
    <style>
      .st0 {
        fill: #fff;
      }
    </style>
  </defs>
  <path class="st0" d="M221.25,16.46v279.04h-124.5c4.03-3.38,10.19-5.58,13.5-9.56,6.29-7.59,15-31.88,15.74-41.69.95-12.6-2.72-22.64,1.48-35.18,1.05-3.15,3.28-5.96,3.79-9.32,1.99-.19,1.21-.03,1.48,1.12,2.57,11.04,8.81,41.5,4.65,51.01-2.02,4.63-9.35,9.62,2.86,6.22.47,3.15-3.63,4.61-1.55,7.72,1.03,1.53,3.37.85,4.75,1.31.78.26.2,2.06,3.13,1.45s7.12-5.94,7.77-8.75c1.08-4.69-.97-7.18-1.35-11.06-2.44-25.2.05-77.46-17.61-95.4-1.89-1.92-.43,1.01-1.88.75-.99-4.03,1.63-3.72,3.47-6.62,4.46-7.01-1.72-6.05-3.1-8.34-.63-1.05-.29-2.88-.96-4.28-6.78-14.21-19.63-12.08-30.16-3.2,1.47-3.82,1.41-5.05.38-9-2.22-8.53-5.8-17.53-8.26-26.17-2.61-9.15-5.06-18.39-7.12-27.67,13.54.97,27.28,1.01,40.9.77,21.75-.38,48.26-.79,69.66-3.83,2.53-.36,11.76-1.98,13.71-2.79,10.87-4.52,7.4-14.82-2.62-17.89-6.31-1.94-10.14.55-15.55-.21-.7-.1-1.67.15-1.1-1.11.5-1.12,7.61-7.9,8.72-8.51,4.61-2.53,9.2-1.46,14.17-6.07,4.01-3.72,4.32-7.7,5.61-12.73Z"/>
  <path class="st0" d="M0,54.61c1.14.87,1.35,2.32,2.25,3.4,9.07,10.75,51.9,8.71,66.47,10.72.7.1,1.48-.29,2.18-.42l.95,1c2.69,13.29,4.24,26.82,7.11,40.07,3.22,14.88,10.45,32.36,10.35,47.35-.05,7.24-3.49,15.31-3.05,22.44.46,7.59,3.23,16.24,5.23,23.57-7.7-2.74-15.76-5.95-23.52-1.38s-5.69,13.42-3.49,20.47c3.37,10.8,12.94,27.23,19.94,36.22,1.62,2.08,3.95,4.48,6.72,4.59,2.49.1,8.93-2.85,8.64-5.62-.46-4.54-4.31-1.55-5.84-1.28-4.27.75-7.14-6.8-4.75-10.02l8.3-.33c.18-5.14-6.46-6.05-9.33-9.76-1.06-1.37-7.08-15.83-6.41-16.41,26.01.92,31.81,31.58,18.37,50.1-1.58-1.75-3.76-2.98-5.69-1.01.87,4.34,4.6,13.38,1.58,17.13-1.33,1.66-10.41,2.23-10.57,3.76-.46,4.27,4.59,3.86,6.8,6.31H0V54.61Z"/>
  <path d="M0,53.12c3.89-7.69,8.8-11.15,17.61-10.46,7.98.63,21.05,4.76,28.54,3.79,1.59-.21,1.21-1.63,2.33-2.16,9.08-4.27,11.33-4.44,21.06-2.56,5.77,1.12,7.91-.02,10.36,6.93,4-2.94,5.55-.32,8.95,0,18.56,1.77,42.03-.59,60.78-1.51,11.11-.55,22.25-.73,33.37-1.5-.76-3.14-.2-7.86-.93-10.67-.44-1.69-4.13-6.29-5.21-9.02-2.99-7.58-3.27-17.44,1.28-24.45,6.08,3.37,13.67,11.41,14.47,18.53.64,5.69-6.76,13.62-6.64,22.22.01.9-.49,3.3,1.14,2.63l10.87-11.76c2.63-12.25,8.98-25.6,22.51-27.89l-.03,4.18.78,1.81v5.24c-1.28,5.04-1.6,9.01-5.61,12.73-4.96,4.61-9.55,3.54-14.17,6.07-1.11.61-8.22,7.4-8.72,8.51-.56,1.26.41,1.01,1.1,1.11,5.41.76,9.24-1.72,15.55.21,10.01,3.07,13.49,13.37,2.62,17.89-1.96.81-11.18,2.43-13.71,2.79-21.4,3.04-47.91,3.45-69.66,3.83-13.62.24-27.36.2-40.9-.77,2.06,9.29,4.51,18.53,7.12,27.67,2.46,8.63,6.05,17.64,8.26,26.17,1.03,3.95,1.08,5.17-.38,9,10.53-8.88,23.38-11.01,30.16,3.2.67,1.4.33,3.23.96,4.28,1.38,2.29,7.56,1.32,3.1,8.34-1.84,2.9-4.46,2.59-3.47,6.62,1.45.26-.01-2.67,1.88-.75,17.65,17.94,15.16,70.2,17.61,95.4.38,3.88,2.43,6.37,1.35,11.06-.65,2.82-4.79,8.13-7.77,8.75s-2.35-1.19-3.13-1.45c-1.38-.46-3.72.23-4.75-1.31-2.08-3.11,2.01-4.57,1.55-7.72-12.21,3.4-4.88-1.59-2.86-6.22,4.16-9.51-2.08-39.97-4.65-51.01-.27-1.15.51-1.31-1.48-1.12-.52,3.36-2.74,6.17-3.79,9.32-4.2,12.55-.52,22.59-1.48,35.18-.74,9.81-9.45,34.11-15.74,41.69-3.3,3.98-9.47,6.18-13.5,9.56h-4.5c-2.21-2.46-7.25-2.04-6.8-6.31.16-1.53,9.23-2.1,10.57-3.76,3.02-3.75-.71-12.79-1.58-17.13,1.92-1.97,4.11-.74,5.69,1.01,13.44-18.53,7.63-49.18-18.37-50.1-.66.58,5.35,15.04,6.41,16.41,2.87,3.72,9.51,4.63,9.33,9.76l-8.3.33c-2.39,3.23.48,10.78,4.75,10.02,1.52-.27,5.38-3.26,5.84,1.28.28,2.77-6.15,5.72-8.64,5.62-2.77-.11-5.09-2.51-6.72-4.59-7-8.99-16.57-25.43-19.94-36.22-2.2-7.05-4.23-15.92,3.49-20.47s15.81-1.36,23.52,1.38c-2-7.33-4.77-15.98-5.23-23.57-.44-7.13,3-15.19,3.05-22.44.1-14.99-7.12-32.46-10.35-47.35-2.87-13.25-4.42-26.78-7.11-40.07l-.95-1c-.7.13-1.48.52-2.18.42-14.57-2.01-57.4.03-66.47-10.72-.91-1.08-1.12-2.52-2.25-3.4v-1.5ZM115.55,142.1c-.76-7.01-9.96-2.75-11.45,1.75-.59,1.76-1.22,6.64-.26,8.05,1.28,1.88,5.23-1.12,4.15,1.08-1.47,2.99-5.03,5.84-4.88,9.75.12,3.28,4.9,6.2,5.09,9.89,4.43,2.25,7.29,3.68,11.75.52,1.78-1.26,2.18-2.81,3.28-3.83.95-.89,3.18-1,3.92-2.48,1.3-2.59-4.64-14.35-4.14-14.96l3.28,2.2c4.51-3.48,3.86-11.78-2.02-13.62-3.73-1.17-5.16,1.62-8.72,1.65Z"/>
  <path class="st0" d="M0,53.12V0h221.25v11.22l-.78-1.81.03-4.18c-13.53,2.29-19.88,15.64-22.51,27.89l-10.87,11.76c-1.63.67-1.13-1.73-1.14-2.63-.12-8.6,7.28-16.53,6.64-22.22-.8-7.12-8.39-15.16-14.47-18.53-4.55,7.01-4.27,16.87-1.28,24.45,1.08,2.73,4.77,7.32,5.21,9.02.73,2.81.17,7.53.93,10.67-11.12.78-22.26.96-33.37,1.5-18.75.93-42.22,3.29-60.78,1.51-3.4-.33-4.95-2.94-8.95,0-2.45-6.95-4.58-5.81-10.36-6.93-9.73-1.89-11.98-1.72-21.06,2.56-1.12.53-.74,1.95-2.33,2.16-7.49.97-20.56-3.16-28.54-3.79-8.81-.69-13.72,2.77-17.61,10.46Z"/>
  <path class="st0" d="M115.55,142.1c3.56-.03,4.99-2.82,8.72-1.65,5.88,1.84,6.53,10.14,2.02,13.62l-3.28-2.2c-.5.61,5.44,12.36,4.14,14.96-.74,1.48-2.97,1.59-3.92,2.48-1.1,1.03-1.5,2.57-3.28,3.83-4.45,3.16-7.32,1.73-11.75-.52-.19-3.69-4.97-6.61-5.09-9.89-.14-3.91,3.42-6.76,4.88-9.75,1.08-2.2-2.88.81-4.15-1.08-.96-1.41-.33-6.29.26-8.05,1.5-4.5,10.69-8.76,11.45-1.75ZM125.25,165.34c-6.55-.33-11.88-2.65-18.74-1.5l8.77,3.6c2.33-.52,4.8-.43,7.14-.83.8-.14,2.98-.19,2.83-1.28Z"/>
  <path d="M125.25,165.34c.15,1.09-2.03,1.14-2.83,1.28-2.34.4-4.81.31-7.14.83l-8.77-3.6c6.86-1.15,12.2,1.17,18.74,1.5Z"/>
</svg>